<svg width="48" height="47" viewBox="0 0 48 47" fill="none" xmlns="http://www.w3.org/2000/svg">
<path d="M45.8214 25.1786C46.2666 25.1786 46.6936 25.0017 47.0084 24.6869C47.3232 24.3721 47.5 23.9452 47.5 23.5C47.5 23.0548 47.3232 22.6279 47.0084 22.3131C46.6936 21.9983 46.2666 21.8214 45.8214 21.8214H40.7857V16.7857H45.8214C46.2666 16.7857 46.6936 16.6089 47.0084 16.2941C47.3232 15.9793 47.5 15.5523 47.5 15.1071C47.5 14.662 47.3232 14.235 47.0084 13.9202C46.6936 13.6054 46.2666 13.4286 45.8214 13.4286H40.7857C40.7857 11.6478 40.0783 9.94003 38.8191 8.68085C37.56 7.42168 35.8522 6.71429 34.0714 6.71429V1.67857C34.0714 1.23339 33.8946 0.806435 33.5798 0.491642C33.265 0.176849 32.838 0 32.3929 0C31.9477 0 31.5207 0.176849 31.2059 0.491642C30.8911 0.806435 30.7143 1.23339 30.7143 1.67857V6.71429H25.6786V1.67857C25.6786 1.23339 25.5017 0.806435 25.1869 0.491642C24.8721 0.176849 24.4452 0 24 0C23.5548 0 23.1279 0.176849 22.8131 0.491642C22.4983 0.806435 22.3214 1.23339 22.3214 1.67857V6.71429H17.2857V1.67857C17.2857 1.23339 17.1089 0.806435 16.7941 0.491642C16.4793 0.176849 16.0523 0 15.6071 0C15.162 0 14.735 0.176849 14.4202 0.491642C14.1054 0.806435 13.9286 1.23339 13.9286 1.67857V6.71429C12.1478 6.71429 10.44 7.42168 9.18085 8.68085C7.92168 9.94003 7.21429 11.6478 7.21429 13.4286H2.17857C1.73339 13.4286 1.30644 13.6054 0.991642 13.9202C0.676849 14.235 0.5 14.662 0.5 15.1071C0.5 15.5523 0.676849 15.9793 0.991642 16.2941C1.30644 16.6089 1.73339 16.7857 2.17857 16.7857H7.21429V21.8214H2.17857C1.73339 21.8214 1.30644 21.9983 0.991642 22.3131C0.676849 22.6279 0.5 23.0548 0.5 23.5C0.5 23.9452 0.676849 24.3721 0.991642 24.6869C1.30644 25.0017 1.73339 25.1786 2.17857 25.1786H7.21429V30.2143H2.17857C1.73339 30.2143 1.30644 30.3911 0.991642 30.7059C0.676849 31.0207 0.5 31.4477 0.5 31.8929C0.5 32.338 0.676849 32.765 0.991642 33.0798C1.30644 33.3946 1.73339 33.5714 2.17857 33.5714H7.21429C7.21429 35.3522 7.92168 37.06 9.18085 38.3191C10.44 39.5783 12.1478 40.2857 13.9286 40.2857V45.3214C13.9286 45.7666 14.1054 46.1936 14.4202 46.5084C14.735 46.8232 15.162 47 15.6071 47C16.0523 47 16.4793 46.8232 16.7941 46.5084C17.1089 46.1936 17.2857 45.7666 17.2857 45.3214V40.2857H22.3214V45.3214C22.3214 45.7666 22.4983 46.1936 22.8131 46.5084C23.1279 46.8232 23.5548 47 24 47C24.4452 47 24.8721 46.8232 25.1869 46.5084C25.5017 46.1936 25.6786 45.7666 25.6786 45.3214V40.2857H30.7143V45.3214C30.7143 45.7666 30.8911 46.1936 31.2059 46.5084C31.5207 46.8232 31.9477 47 32.3929 47C32.838 47 33.265 46.8232 33.5798 46.5084C33.8946 46.1936 34.0714 45.7666 34.0714 45.3214V40.2857C35.8522 40.2857 37.56 39.5783 38.8191 38.3191C40.0783 37.06 40.7857 35.3522 40.7857 33.5714H45.8214C46.2666 33.5714 46.6936 33.3946 47.0084 33.0798C47.3232 32.765 47.5 32.338 47.5 31.8929C47.5 31.4477 47.3232 31.0207 47.0084 30.7059C46.6936 30.3911 46.2666 30.2143 45.8214 30.2143H40.7857V25.1786H45.8214ZM24 31.8929C21.7741 31.8929 19.6393 31.0086 18.0654 29.4346C16.4914 27.8607 15.6071 25.7259 15.6071 23.5C15.6071 18.8705 19.3705 15.1071 24 15.1071C28.6295 15.1071 32.3929 18.8705 32.3929 23.5C32.3929 28.1295 28.6295 31.8929 24 31.8929ZM24 18.4643C21.2236 18.4643 18.9643 20.7236 18.9643 23.5C18.9643 26.2764 21.2236 28.5357 24 28.5357C26.7764 28.5357 29.0357 26.2764 29.0357 23.5C29.0357 20.7236 26.7764 18.4643 24 18.4643Z" fill="#4074AB"/>
</svg>
