<svg width="26" height="26" viewBox="0 0 26 26" fill="none" xmlns="http://www.w3.org/2000/svg">
<path d="M13 0C5.837 0 0 5.837 0 13C0 20.163 5.837 26 13 26C20.163 26 26 20.163 26 13C26 5.837 20.163 0 13 0ZM19.214 10.01L11.843 17.381C11.661 17.563 11.414 17.667 11.154 17.667C10.894 17.667 10.647 17.563 10.465 17.381L6.786 13.702C6.409 13.325 6.409 12.701 6.786 12.324C7.163 11.947 7.787 11.947 8.164 12.324L11.154 15.314L17.836 8.632C18.213 8.255 18.837 8.255 19.214 8.632C19.591 9.009 19.591 9.62 19.214 10.01Z" fill="#52E24D"/>
</svg>
