<svg width="15" height="16" viewBox="0 0 15 16" fill="none" xmlns="http://www.w3.org/2000/svg">
<g clip-path="url(#clip0_3002_1664)">
<mask id="mask0_3002_1664" style="mask-type:luminance" maskUnits="userSpaceOnUse" x="0" y="0" width="15" height="16">
<path d="M15 0H0V16H15V0Z" fill="white"/>
</mask>
<g mask="url(#mask0_3002_1664)">
<path d="M10.625 1.12012C11.6862 1.12012 12.605 1.50009 13.2559 2.19434C13.9039 2.88561 14.2499 3.84894 14.25 4.95312V8.95312C14.25 10.0573 13.9038 11.0206 13.2559 11.7119C12.7096 12.2946 11.9744 12.6547 11.125 12.7559V13.707C11.1248 14.587 10.1571 15.2304 9.36621 14.668L6.7168 12.7871H4.375C3.31379 12.7871 2.39501 12.4062 1.74414 11.7119C1.0962 11.0206 0.75 10.0573 0.75 8.95312V4.95312C0.750068 3.84894 1.09607 2.88561 1.74414 2.19434C2.39501 1.50009 3.3138 1.12012 4.375 1.12012H10.625Z" fill="white" stroke="#3F84C5"/>
</g>
</g>
<defs>
<clipPath id="clip0_3002_1664">
<rect width="15" height="16" fill="white"/>
</clipPath>
</defs>
</svg>
