<svg width="24" height="25" viewBox="0 0 24 25" fill="none" xmlns="http://www.w3.org/2000/svg">
<mask id="mask0_885_2939" style="mask-type:luminance" maskUnits="userSpaceOnUse" x="6" y="3" width="18" height="20">
<path d="M24 3H6V22.5H24V3Z" fill="white"/>
</mask>
<g mask="url(#mask0_885_2939)">
<path d="M12.75 4.625C10.785 4.625 9.1875 6.35563 9.1875 8.48438C9.1875 10.5725 10.695 12.2625 12.66 12.3356C12.72 12.3275 12.78 12.3275 12.825 12.3356C12.84 12.3356 12.8475 12.3356 12.8625 12.3356C12.87 12.3356 12.87 12.3356 12.8775 12.3356C14.7975 12.2625 16.305 10.5725 16.3125 8.48438C16.3125 6.35563 14.715 4.625 12.75 4.625Z" fill="white"/>
<path d="M16.5598 14.4967C14.4673 12.9855 11.0547 12.9855 8.94723 14.4967C7.99473 15.1873 7.46973 16.1217 7.46973 17.1211C7.46973 18.1205 7.99473 19.0467 8.93973 19.7292C9.98973 20.493 11.3697 20.8748 12.7497 20.8748C14.1298 20.8748 15.5098 20.493 16.5598 19.7292C17.5048 19.0386 18.0298 18.1123 18.0298 17.1048C18.0223 16.1055 17.5048 15.1792 16.5598 14.4967Z" fill="white"/>
<path d="M20.993 8.96371C21.113 10.54 20.078 11.9212 18.6455 12.1081C18.638 12.1081 18.638 12.1081 18.6305 12.1081H18.608C18.563 12.1081 18.518 12.1081 18.4805 12.1243C17.753 12.165 17.0855 11.9131 16.583 11.45C17.3555 10.7025 17.798 9.58121 17.708 8.36246C17.6555 7.70433 17.4455 7.10308 17.1305 6.59121C17.4155 6.43683 17.7455 6.33933 18.083 6.30683C19.553 6.16871 20.8655 7.35496 20.993 8.96371Z" fill="white"/>
<path d="M22.4927 16.4797C22.4327 17.2678 21.9677 17.9503 21.1877 18.4134C20.4377 18.8603 19.4927 19.0716 18.5552 19.0472C19.0952 18.5191 19.4102 17.8609 19.4702 17.1622C19.5452 16.1547 19.1027 15.1878 18.2177 14.4159C17.7152 13.9853 17.1302 13.6441 16.4927 13.3922C18.1502 12.8722 20.2352 13.2216 21.5177 14.3428C22.2077 14.9441 22.5602 15.6997 22.4927 16.4797Z" fill="white"/>
</g>
</svg>
