<svg width="19" height="19" viewBox="0 0 19 19" fill="none" xmlns="http://www.w3.org/2000/svg">
<path d="M9.5 7.6C10.5078 7.6 11.4744 7.19964 12.187 6.48701C12.8996 5.77437 13.3 4.80782 13.3 3.8C13.3 2.79218 12.8996 1.82563 12.187 1.11299C11.4744 0.400356 10.5078 0 9.5 0C8.49218 0 7.52563 0.400356 6.81299 1.11299C6.10036 1.82563 5.7 2.79218 5.7 3.8C5.7 4.80782 6.10036 5.77437 6.81299 6.48701C7.52563 7.19964 8.49218 7.6 9.5 7.6ZM3.325 10.45C3.95489 10.45 4.55898 10.1998 5.00438 9.75438C5.44978 9.30898 5.7 8.70489 5.7 8.075C5.7 7.44511 5.44978 6.84102 5.00438 6.39562C4.55898 5.95022 3.95489 5.7 3.325 5.7C2.69511 5.7 2.09102 5.95022 1.64562 6.39562C1.20022 6.84102 0.95 7.44511 0.95 8.075C0.95 8.70489 1.20022 9.30898 1.64562 9.75438C2.09102 10.1998 2.69511 10.45 3.325 10.45ZM18.05 8.075C18.05 8.70489 17.7998 9.30898 17.3544 9.75438C16.909 10.1998 16.3049 10.45 15.675 10.45C15.0451 10.45 14.441 10.1998 13.9956 9.75438C13.5502 9.30898 13.3 8.70489 13.3 8.075C13.3 7.44511 13.5502 6.84102 13.9956 6.39562C14.441 5.95022 15.0451 5.7 15.675 5.7C16.3049 5.7 16.909 5.95022 17.3544 6.39562C17.7998 6.84102 18.05 7.44511 18.05 8.075ZM9.5 8.55C10.7598 8.55 11.968 9.05044 12.8588 9.94124C13.7496 10.832 14.25 12.0402 14.25 13.3V19H4.75V13.3C4.75 12.0402 5.25044 10.832 6.14124 9.94124C7.03204 9.05044 8.24022 8.55 9.5 8.55ZM2.85 13.3C2.85 12.6417 2.945 12.0061 3.1236 11.4057L2.9621 11.419C2.14784 11.5084 1.39523 11.8952 0.848599 12.5053C0.301969 13.1154 -0.000212571 13.9058 1.12193e-07 14.725V19H2.85V13.3ZM19 19V14.725C19.0001 13.8779 18.6769 13.0628 18.0964 12.4459C17.5159 11.8291 16.7219 11.457 15.8764 11.4057C16.0541 12.0061 16.15 12.6417 16.15 13.3V19H19Z" fill="black"/>
</svg>
