<svg width="19" height="27" viewBox="0 0 19 27" fill="none" xmlns="http://www.w3.org/2000/svg">
<path d="M18.723 23.9438L16.683 19.7721C16.2439 18.8808 15.6763 18.2321 14.6965 18.6276L12.7635 19.3343C11.2161 20.0411 10.445 19.3344 9.66865 18.269L6.18825 10.4688C5.74919 9.57745 5.97943 8.73888 6.95929 8.34333L9.66329 7.27798C10.6432 6.87716 10.4879 6.04386 10.0488 5.15256L7.73033 0.901712C7.29127 0.0104054 6.39172 -0.205829 5.41186 0.189721C3.45213 0.986096 1.82973 2.23603 0.774903 4.08721C-0.510165 6.34976 0.132369 9.49834 0.389383 10.8221C0.646397 12.1459 1.54594 14.4664 2.70786 16.845C3.86978 19.2289 4.88712 21.1011 5.80273 22.1612C6.71299 23.2213 8.89761 26.122 11.6016 26.7707C13.8183 27.2981 16.2118 26.8551 18.1715 26.0587C19.1567 25.679 19.1567 24.8404 18.723 23.9438Z" fill="#191919"/>
</svg>
