<svg width="19" height="19" viewBox="0 0 19 19" fill="none" xmlns="http://www.w3.org/2000/svg">
<path fill-rule="evenodd" clip-rule="evenodd" d="M8.87051 13.9543L5.05152 10.1338C5.47147 9.43082 5.89007 8.70341 6.30458 7.98008C7.6854 5.57895 9.0336 3.23493 10.2975 2.01533C13.7278 -1.4164 18.4261 0.574111 18.4261 0.574111C18.4261 0.574111 20.4158 5.27439 16.9855 8.70613C15.7759 9.95972 13.4696 11.2894 11.0872 12.66C10.3451 13.0883 9.59625 13.5193 8.87051 13.9543ZM11.7789 5.07316C11.7789 4.5027 12.0054 3.95559 12.4087 3.55221C12.8119 3.14883 13.3587 2.92221 13.929 2.92221C14.4992 2.92221 15.0461 3.14883 15.4493 3.55221C15.8525 3.95559 16.079 4.5027 16.079 5.07316C16.0649 5.63409 15.8323 6.1673 15.4307 6.55904C15.0292 6.95079 14.4905 7.17004 13.9296 7.17004C13.3688 7.17004 12.8301 6.95079 12.4286 6.55904C12.027 6.1673 11.793 5.63409 11.7789 5.07316ZM6.22168 4.75773C4.29452 4.24514 2.48559 5.19417 0.880533 6.66666C0.806515 6.73642 0.749822 6.82252 0.714981 6.9181C0.68014 7.01367 0.668115 7.11607 0.679867 7.21712C0.691618 7.31817 0.72682 7.41507 0.782662 7.50009C0.838505 7.58511 0.913441 7.6559 1.00149 7.70679L3.59052 9.26766L3.59324 9.26222C3.96698 8.63679 4.38422 7.9121 4.80825 7.17789C5.29072 6.33899 5.78134 5.48786 6.22168 4.75773ZM9.73759 15.4173L11.2978 18.0074C11.3488 18.0954 11.4196 18.1703 11.5047 18.226C11.5897 18.2817 11.6866 18.3168 11.7876 18.3284C11.8886 18.3401 11.9909 18.3279 12.0864 18.293C12.1819 18.258 12.2679 18.2012 12.3375 18.1271C13.8094 16.5227 14.7594 14.7117 14.2456 12.7837C13.5362 13.2106 12.7914 13.6403 12.0534 14.0658L11.9406 14.1311C11.1959 14.5607 10.4579 14.985 9.74439 15.4132L9.73759 15.4173ZM3.53616 12.7035C4.08545 12.6937 4.6248 12.8507 5.08312 13.1538C5.54143 13.4569 5.89719 13.8917 6.10351 14.4011C6.30982 14.9105 6.35701 15.4705 6.23884 16.0072C6.12068 16.544 5.84271 17.0323 5.44157 17.4078C5.13986 17.6961 4.66826 17.9231 4.232 18.0958C3.74255 18.2842 3.24354 18.4467 2.73702 18.5826C2.23824 18.7185 1.76257 18.8273 1.40242 18.8994C1.25099 18.9304 1.09871 18.9572 0.945768 18.9796C0.885969 18.9877 0.825717 18.9936 0.765012 18.9973C0.674216 19.0054 0.582701 18.9953 0.495916 18.9673C0.36836 18.9302 0.254486 18.8564 0.16838 18.7552C0.0944279 18.6695 0.0430405 18.5667 0.0188822 18.4561C0.00169036 18.3776 -0.00380531 18.297 0.00257331 18.2168C0.00665052 18.1624 0.0148049 18.0999 0.0229594 18.0428C0.0406273 17.9231 0.0678087 17.7668 0.104504 17.5887C0.176534 17.2297 0.287978 16.7566 0.423885 16.2603C0.559792 15.7654 0.725599 15.2351 0.911791 14.7715C1.08575 14.335 1.31136 13.8646 1.59948 13.5641C1.84824 13.2982 2.14785 13.0851 2.48053 12.9372C2.81321 12.7894 3.17218 12.7099 3.53616 12.7035Z" fill="black"/>
</svg>
