<svg width="20" height="34" viewBox="0 0 20 34" fill="none" xmlns="http://www.w3.org/2000/svg">
<path d="M19.5 9.91551C19.4997 7.74992 18.8203 5.64397 17.5656 3.91933C16.311 2.19468 14.5501 0.946164 12.5518 0.364466C10.5535 -0.217233 8.4278 -0.100132 6.49928 0.697883C4.57077 1.4959 2.94549 2.93096 1.87169 4.78387C0.797895 6.63678 0.334613 8.80567 0.55261 10.9593C0.770606 13.1129 1.6579 15.1328 3.07895 16.7105C4.50001 18.2882 6.37671 19.337 8.42241 19.6966C10.4681 20.0562 12.5703 19.7069 14.408 18.7021C13.7729 21.1616 12.8771 23.2215 11.805 24.8649C9.66072 28.1574 6.85144 29.7498 3.89287 29.7498C3.35296 29.7498 2.83517 29.9737 2.4534 30.3722C2.07163 30.7708 1.85715 31.3113 1.85715 31.8749C1.85715 32.4385 2.07163 32.979 2.4534 33.3776C2.83517 33.7761 3.35296 34 3.89287 34C8.42843 34 12.4076 31.498 15.1734 27.2563C17.9149 23.0458 19.5 17.104 19.5 9.91551Z" fill="#4074AB"/>
</svg>
